<?xml version="1.0" encoding="utf-8"?>
<!-- Generator: Adobe Illustrator 23.1.0, SVG Export Plug-In . SVG Version: 6.00 Build 0)  -->
<svg version="1.1" id="Layer_1" xmlns="http://www.w3.org/2000/svg" xmlns:xlink="http://www.w3.org/1999/xlink" x="0px" y="0px"
	 viewBox="0 0 371.95 248.13" style="enable-background:new 0 0 371.95 248.13;" xml:space="preserve">
<style type="text/css">
	.st0{fill:#262424;}
</style>
<g>
	<path class="st0" d="M197.61,84.09c-1.28,1.55-3.65,2.12-5.86,1.36c-9.41-3.25-2.86-10.16,1.18-9.33
		c-3.8-3.04-9.46-0.69-10.89,0.08c-4.86,2.61-9.16-2.22-12.91,0.25c-3.39,2.23,2.02,16.16-11.66,9.48
		c-3.51-1.71-5.43-3.76-9.58-3.37c-1.09,0.1-4.25,0.99-4.8,1.78c4.98-0.69,12.3,6.8,16.43,9.56c5.33,3.57,8.65,10.96,22.52,10.29
		c0.46-0.02,1.19-0.31,1.28-0.6c0.61-2.18,0.55-7.93,5.54-8.24c3.18-0.2,6.07,0.79,8.18,3.04c1.07,1.14,1.46,2.34,1.11,3.53
		c2.1-2.06,4.48-7.01,4.41-10.09c-0.07-3.34-0.92-6.26-4.18-9.51C198.26,82.96,198.03,83.58,197.61,84.09z"/>
	<path class="st0" d="M356,45.18c-13.56-10.68-22.59,18.95-49.49,18.95c-31.02,0-29.35-23.86-10.64-25.1
		c18.71-1.24,18.56,15.03,18.56,15.03s10.28-25.82-9.59-29.26c-6.88-1.19-14.97,4.01-21.98,3.99c-3.99-0.01-8.2-0.46-11.92-1.6
		c-5.29-1.62-8.74-5.08-9.06-9.98c-0.26-4.08,1.91-7.1,7.09-8.16c-4.25-4.37-8.88-6.86-15.43-8.08
		c-11.51-2.14-22.59-0.64-33.49,2.78c-7.48,2.35-15.1,4.39-23.11,6.69c2.18,0.22,4.17,0.72,6.07,0.55
		c5.73-0.52,11.43-1.24,17.12-2.01c11.33-1.54,21.88,2.72,26.77,11.34c1.08,1.9,1.51,4.83,0.51,6.62
		c-3.86,6.88-11.94,9.93-21.01,5.96c-3.31-1.45-4.28-3.97-3.41-6.97c1.15-4,4.69-5.57,9.44-6.34c-2.84-1.12-5.58-2.03-8.4-2.24
		c-7.56-0.58-14.35,1.75-21.13,4.21c-10.05,3.66-20.04,7.76-31.81,6.36c2.46,1.41,5.03,3.1,7.7,3.21
		c6.44,0.29,12.94,0.01,19.39-0.38c3.22-0.19,6.35-1.43,9.58-1.65c5.53-0.38,8.76,2.1,9.17,6.37c0.3,3.11-0.59,6.26-4.07,7.22
		c-3.23,0.89-7.38,0.93-10.6,0.02c-3.87-1.09-7.06-3.76-10.77-5.39c-7.8-3.44-15.29-3.04-22.15,1.88
		c-1.89,1.36-3.83-4.68-10.48-2.36c-12.53,4.37-18.03,7.39-23.71,6.65c-8.12-1.07-14.31-11.2-19.8-6.51
		c-2.09,1.79-4.34,4.67-6.98,5.75c-8.51,3.48-11.15-18.25-28.56-11.14c17.17,3.76,9.15,20.23,21.37,19.98
		c10.06-0.21,22.5,9.3,22.64,14.43c0.06,2.3-0.77,4.74-9.73,3.33c-2.85-0.45-10.33-4.86-10.5-9.34c-1.85,5.13,2.75,11.78,5.79,13.55
		c7.08,4.14,20.91,5.11,20.9,11.66c0,2.33-3.29,19.53-29.34-8.21c-6.91-7.36-17.92-4.63-27.03-0.46c-4.92,2.25-9.84,4.51-14.72,6.82
		c-8.21,3.87-16.3,8.02-26.47,7.92c3.2,1.04,6.61,2.22,9.6,1.71c5.4-0.91,10.66-2.62,15.78-4.39c6.32-2.18,12.32-5.02,18.69-7.06
		c4.02-1.28,7.88,0.64,8.65,3.43c0.78,2.83-2.17,6.04-6.46,6.37c-3.86,0.3-7.82-0.26-11.68,0.03c-3.55,0.27-7.03,1.18-10.54,1.81
		c0.05,0.42,0.1,0.84,0.16,1.26c8.97-2.17,16.57-0.44,23.28,4.81c1.64,1.28,4.49,1.5,7.78,2.51c-2.55-5.25-0.39-8.6,4.72-9.48
		c4.03-0.69,9.24,1.38,11,4.57c1.84,3.35,0.9,6.4-2.27,8.85c-4.62,3.56-10.27,4.35-16.17,3.18c-3.97-0.79-7.78-2.13-8.26-6.38
		c-0.06-0.57-1.34-1.36-2.19-1.51c-3.95-0.73-7.93-1.42-11.93-1.86c-12.87-1.39-24.23,2.25-35.24,7.28
		c-8.52,3.89-17.39,6.87-27.64,4.86c1.82,1.13,3.66,2.09,5.66,2.61c7.62,1.98,14.94,0.55,21.78-2.18c8.49-3.39,16.75-3.18,24.64,0.6
		c5.2,2.49,9.88,5.78,14.62,8.9c3.78,2.49,7,5.64,11.01,7.78c2.7,1.44,6.37,1.65,9.6,2.4c-3.29-4.9-2.09-7.43,3.83-8.39
		c4.35-0.71,8.59,1.03,10.5,4.31c2.09,3.6,0.81,8.62-3.1,11.35c-4.99,3.48-10.75,3.76-16.21,1.35c-5.33-2.36-10.34-5.33-15.15-8.39
		c-7.05-4.48-14.92-6.52-23.63-5.88c-3.5,0.26-6.89,1.57-10.33,2.4c0.09,0.34,0.19,0.69,0.28,1.03c12.09-3.47,22,0.02,30.94,6.56
		c3.28,2.4,6.21,5.23,9.82,7.22c5.66,3.11,11.4,6.61,17.75,8.23c10.94,2.79,21.13-0.9,30.97-4.83c7.3-2.91-4.33,10.41-5.32,11.24
		c-7.01,5.91-22.76,7.36-48.77-1.13c19.17,10.68,22.45,12.87,34.15,14.33c8.45,1.06,16-1.84,23.91-2.83
		c23.34-2.91,18.64,7.03,13.54,8.2c-2.43,0.56-5.21,0.23-7.81,0.07c-10.71-0.7-21.39-1.71-32.11-2.13
		c-4.25-0.17-8.57,0.88-12.85,1.37c12.97-0.62,24.81,2.22,36.46,6.35c7.93,2.81,16.24,4.88,25.02,2.95
		c3.11-0.69,6.27-1.17,7.04-5.08c0.36-1.83,4.48-4.13,7.1-4.34c1.94-0.15,5.54,2.55,5.95,4.36c0.36,1.62-2.37,3.97-4.27,5.57
		c-1.04,0.88-3.15,0.99-4.82,1.23c-5.69,0.81-11.45,1.32-17.07,2.34c-4.13,0.75-8.09,2.13-12.12,3.22c0.12,0.34,0.25,0.68,0.37,1.02
		c0.54-0.05,1.07-0.11,1.61-0.16c12.26-1.1,24.21-1.18,35.36,4.51c4.15,2.12,9.2,3.16,13.99,4.2c2.58,0.56,5.48,0.1,9.31,0.1
		c-2.14-1.63-3.27-2.33-4.17-3.19c-3.91-3.75-4.03-9.96-0.32-12.8c4.63-3.55,16.67-4.02,21.63-0.74c3.17,2.09,4.1,4.83,2.47,7.99
		c-1.58,3.06-4.66,3.53-8.19,3.02c-1.54-0.23-3.07-0.53-4.94-0.86c8.39,10,28.76,11.78,35.72,2.82c-1.94,0.15-4.1,0.57-6.2,0.42
		c-3.11-0.22-5.88-1.21-6.26-4.27c-0.39-3.18,1.81-4.99,5.27-5.41c3.98-0.49,8.07-0.79,12.08-0.65c10.1,0.35,19.92-0.44,29.46-3.38
		c6.43-1.98,12.86-4.02,19.47-5.5c3.46-0.78,7.38-0.86,10.95-0.43c3.43,0.42,5.93,2.61,5.74,5.78c-0.18,2.99-2.28,5.33-5.91,5.76
		c-3.95,0.48-8.04,0.52-12.04,0.34c-7.01-0.33-14.04-1.9-20.93,0.66c7.16-0.15,12.89,2.83,18.66,5.66
		c10.14,4.98,20.78,6.09,31.18,1.25c9.62-4.48,18.64-9.85,27.88-14.89c1.45-0.79,2.63-1.92,3.32-2.43c-2.99-1.67-7.57-1.9-9.92-3.26
		c-4.69-2.71,1.43-5.75,5.28-5.68c27.14,0.49,29.57-34.94,30-60.66C372.65,67.64,363.1,51.56,356,45.18z M225.65,162.81h-29.27
		l-22.75-34.62c-4.52,0-8.7,0-12.37,0v34.62h-26.1V62.48c0.46,0.98,0.89,1.88,1.3,2.54c1.9,3.11,4.29,8.4,10.92,9.22
		c0.26,0.03,0.63,0.01,0.8-0.01c4.84-0.54,2.99-3.3,5.15-5.87c5.19-6.19,14.15,9.82,3.5,8.91c-5.8-0.49-8.99,1.37-9.45,1.9
		c6.14-2.68,14.56,4.68,16.54,2.13c2.36-3.04,7.23-19.65-11.62-20.07c-3.53-0.08-1.78,2.99-4.1,4.06c-2.81,1.29-5.43,1.83-10.9-4.88
		c-0.95-1.17-1.68-2.66-2.72-3.77c-0.35-0.51-0.89-0.92-1.7-1.2c-0.03-0.01-0.05-0.04-0.07-0.05c-0.02-0.01-0.05,0.01-0.07,0
		c-0.79-0.25-1.8-0.4-3.15-0.37c-5.54,0.11-1.48-6.81-9.26-8.51c7.89-3.22,9.08,6.63,12.94,5.05c1.2-0.49,2.21-1.8,3.16-2.61
		c2.49-2.12,6.68,0.79,10.36,1.27c2.57,0.34,4.56-0.35,6.41-1.69c0.86-0.62,1.74-1.2,2.6-1.82c3.11-2.23,6.63-2.66,10.04-0.85
		c4.61,2.45,3.92,7.39,7.58,8.18c3.64,0,8.14,0,13.77,0c26.76,0,38.81,20.41,38.81,37.14c0,12.21-6.52,28.44-23.75,34.46
		L225.65,162.81z M351.83,162.81h-26.1v-60.89l-32.28,20.57l-31.28-20.4v60.72h-26.1V54.07l57.71,37.31l58.05-37.31V162.81z"/>
</g>
<g>
	<path class="st0" d="M41.5,240.16l4.55,7.22h-5.69l-4.42-6.73c-0.88,0-1.69,0-2.41,0v6.73h-5.07v-21.14h5.07c0.62,0,2.02,0,5.04,0
		c5.2,0,7.54,3.97,7.54,7.22C46.12,235.84,44.85,238.99,41.5,240.16z M33.54,236.1h5.01c0.65,0,1.24-0.1,1.66-0.29
		c0.29-0.16,0.55-0.33,0.75-0.55c0.46-0.55,0.62-1.3,0.62-1.79c0-0.52-0.16-1.27-0.68-1.82c-0.49-0.59-1.24-0.85-2.31-0.85h-5.04
		V236.1z"/>
	<path class="st0" d="M72.98,237.23c0,6.02-4.88,10.89-10.89,10.89s-10.89-4.88-10.89-10.89c0-6.02,4.88-10.89,10.89-10.89
		S72.98,231.22,72.98,237.23z M68.43,237.23c0-1.69-0.65-3.28-1.85-4.49c-1.2-1.2-2.8-1.85-4.49-1.85c-1.69,0-3.28,0.65-4.49,1.85
		s-1.85,2.8-1.85,4.49c0,1.69,0.65,3.28,1.85,4.49c1.2,1.17,2.8,1.85,4.49,1.85c1.69,0,3.28-0.68,4.49-1.85
		C67.78,240.52,68.43,238.92,68.43,237.23z"/>
	<path class="st0" d="M95.97,244.71c-1.92,1.59-4.36,2.57-7.06,2.57c-5.98,0-10.86-4.88-10.86-10.86c0-6.02,4.88-10.89,10.86-10.89
		c2.7,0,5.14,0.98,7.06,2.6l-3.25,3.22c-1.07-0.81-2.41-1.27-3.8-1.27c-1.69,0-3.25,0.65-4.45,1.85c-1.2,1.2-1.85,2.8-1.85,4.49
		c0,1.69,0.65,3.25,1.85,4.46c1.2,1.2,2.76,1.85,4.45,1.85c1.4,0,2.73-0.46,3.8-1.27L95.97,244.71z"/>
	<path class="st0" d="M108.42,239.51l-2.31,2.34v5.53h-5.07v-21.14h5.07v8.42l8.42-8.42h7.19l-9.69,9.66l10.99,11.48h-7.19
		L108.42,239.51z"/>
	<path class="st0" d="M126.77,235.58h11.15v4.55h-11.15V235.58z"/>
	<path class="st0" d="M165.5,226.24v21.14h-5.07v-11.84l-6.28,4l-6.08-3.97v11.8H143v-21.14l11.22,7.25L165.5,226.24z"/>
	<path class="st0" d="M185.91,244.42h-7.97l-1.53,2.96h-5.85l11.38-21.14l11.35,21.14h-5.85L185.91,244.42z M183.87,240.45
		l-1.92-3.71l-1.95,3.71H183.87z"/>
	<path class="st0" d="M211.36,240.16l4.55,7.22h-5.69l-4.42-6.73c-0.88,0-1.69,0-2.41,0v6.73h-5.07v-21.14h5.07
		c0.62,0,2.02,0,5.04,0c5.2,0,7.54,3.97,7.54,7.22C215.98,235.84,214.71,238.99,211.36,240.16z M203.39,236.1h5.01
		c0.65,0,1.24-0.1,1.66-0.29c0.29-0.16,0.55-0.33,0.75-0.55c0.46-0.55,0.62-1.3,0.62-1.79c0-0.52-0.16-1.27-0.68-1.82
		c-0.49-0.59-1.24-0.85-2.31-0.85h-5.04V236.1z"/>
	<path class="st0" d="M228.43,239.51l-2.31,2.34v5.53h-5.07v-21.14h5.07v8.42l8.42-8.42h7.19l-9.69,9.66l10.99,11.48h-7.19
		L228.43,239.51z"/>
	<path class="st0" d="M251.81,242.83h9.69v4.55h-14.76v-21.14h14.76v4.55h-9.69v3.74h8.23v4.55h-8.23V242.83z"/>
	<path class="st0" d="M277.14,231.32v16.06h-5.07v-16.06h-5.49v-5.07h16.06v5.07H277.14z"/>
	<path class="st0" d="M292.79,226.24v21.14h-5.07v-21.14H292.79z"/>
	<path class="st0" d="M316.95,226.24v21.14l-14.01-10.31v10.31h-5.07v-21.14l14.01,10.8v-10.8H316.95z"/>
	<path class="st0" d="M343.48,235.12v12.26h-4.23v-1.69c-1.79,1.27-3.97,2.02-6.34,2.02c-6.02,0-10.9-4.88-10.9-10.89
		c0-6.02,4.88-10.89,10.9-10.89c2.7,0,5.17,0.98,7.09,2.6l-3.25,3.22c-1.11-0.81-2.44-1.27-3.84-1.27c-1.69,0-3.29,0.65-4.46,1.85
		c-1.2,1.2-1.89,2.8-1.89,4.49s0.68,3.28,1.89,4.49c1.17,1.17,2.76,1.85,4.46,1.85c1.69,0,3.28-0.68,4.49-1.85
		c0.23-0.23,1.17-1.2,1.46-1.95h-4.88v-4.23h5.27H343.48z M339.25,239.38v-0.03h-0.03L339.25,239.38z"/>
</g>
</svg>
