<?xml version="1.0" encoding="utf-8"?>
<!-- Generator: Adobe Illustrator 23.1.0, SVG Export Plug-In . SVG Version: 6.00 Build 0)  -->
<svg version="1.1" id="Слой_1" xmlns="http://www.w3.org/2000/svg" xmlns:xlink="http://www.w3.org/1999/xlink" x="0px" y="0px"
	 viewBox="0 0 507.96 512" style="enable-background:new 0 0 507.96 512;" xml:space="preserve">
<style type="text/css">
	.st0{clip-path:url(#SVGID_2_);fill:#E5E5E5;}
	.st1{fill:#FFFFFF;}
	.st2{fill:#64B161;}
	.st3{fill-rule:evenodd;clip-rule:evenodd;fill:#FFFFFF;}
</style>
<g>
	<g>
		<defs>
			<rect id="SVGID_1_" x="-2.04" width="510" height="512"/>
		</defs>
		<clipPath id="SVGID_2_">
			<use xlink:href="#SVGID_1_"  style="overflow:visible;"/>
		</clipPath>
		<path class="st0" d="M8.86,512c-2.88,0-5.67-1.14-7.75-3.23c-2.73-2.77-3.79-6.78-2.76-10.54l33.29-121.55
			C10.91,339.21-0.02,296.82,0,253.79C0.06,113.85,113.94,0,253.87,0c67.87,0.03,131.65,26.46,179.58,74.43
			c47.93,47.97,74.31,111.74,74.29,179.56c-0.06,139.95-113.95,253.8-253.87,253.8c0,0-0.1,0-0.11,0
			c-40.87-0.02-81.39-9.98-117.47-28.84l-124.68,32.7C10.7,511.88,9.77,512,8.86,512L8.86,512z M8.86,512"/>
	</g>
	<path class="st1" d="M8.86,501.1l34.47-125.87C22.06,338.39,10.88,296.6,10.9,253.79c0.05-133.93,109.05-242.9,242.98-242.9
		c64.99,0.03,126,25.32,171.87,71.24c45.87,45.91,71.13,106.94,71.1,171.85C496.79,387.92,387.78,496.9,253.87,496.9
		c-0.01,0,0,0,0,0h-0.1c-40.66-0.02-80.62-10.21-116.11-29.57L8.86,501.1z M143.63,423.35l7.38,4.37
		c31,18.4,66.54,28.13,102.79,28.15h0.08c111.31,0,201.9-90.58,201.95-201.9c0.02-53.95-20.96-104.68-59.09-142.84
		c-38.13-38.16-88.83-59.19-142.78-59.21c-111.39,0-201.98,90.57-202.03,201.89c-0.02,38.15,10.66,75.3,30.87,107.44l4.81,7.64
		l-20.41,74.5L143.63,423.35z M143.63,423.35"/>
	<path class="st2" d="M17.3,492.63L50.58,371.1c-20.53-35.56-31.32-75.91-31.31-117.23c0.05-129.3,105.27-234.49,234.56-234.49
		c62.75,0.03,121.64,24.45,165.92,68.77c44.29,44.32,68.66,103.24,68.64,165.9c-0.05,129.3-105.28,234.5-234.55,234.5
		c-0.01,0,0,0,0,0h-0.11c-39.25-0.02-77.83-9.87-112.08-28.54L17.3,492.63z M17.3,492.63"/>
	<path class="st1" d="M8.86,501.1l34.47-125.87C22.06,338.39,10.88,296.6,10.9,253.79c0.05-133.93,109.05-242.9,242.98-242.9
		c64.99,0.03,126,25.32,171.87,71.24c45.87,45.91,71.13,106.94,71.1,171.85C496.79,387.92,387.78,496.9,253.87,496.9
		c-0.01,0,0,0,0,0h-0.1c-40.66-0.02-80.62-10.21-116.11-29.57L8.86,501.1z M143.63,423.35l7.38,4.37
		c31,18.4,66.54,28.13,102.79,28.15h0.08c111.31,0,201.9-90.58,201.95-201.9c0.02-53.95-20.96-104.68-59.09-142.84
		c-38.13-38.16-88.83-59.19-142.78-59.21c-111.39,0-201.98,90.57-202.03,201.89c-0.02,38.15,10.66,75.3,30.87,107.44l4.81,7.64
		l-20.41,74.5L143.63,423.35z M143.63,423.35"/>
	<path class="st3" d="M193.15,152.25c-4.55-10.11-9.34-10.31-13.66-10.49c-3.54-0.15-7.59-0.14-11.63-0.14
		c-4.05,0-10.62,1.52-16.19,7.6c-5.57,6.07-21.25,20.76-21.25,50.63c0,29.88,21.76,58.74,24.79,62.79
		c3.03,4.05,42,67.31,103.71,91.64c51.29,20.23,61.72,16.2,72.85,15.19c11.13-1.01,35.92-14.69,40.98-28.86
		c5.06-14.17,5.06-26.32,3.54-28.87c-1.52-2.53-5.57-4.05-11.64-7.08c-6.07-3.03-35.92-17.73-41.48-19.75
		c-5.57-2.03-9.61-3.03-13.66,3.04c-4.05,6.07-15.68,19.74-19.22,23.79c-3.54,4.06-7.09,4.57-13.16,1.53
		c-6.07-3.04-25.62-9.45-48.82-30.13c-18.05-16.09-30.24-35.96-33.78-42.04c-3.54-6.07-0.06-9.07,2.67-12.39
		c4.91-5.97,13.15-16.71,15.17-20.76c2.02-4.05,1.01-7.6-0.5-10.64C210.34,194.28,198.54,164.25,193.15,152.25L193.15,152.25z
		 M193.15,152.25"/>
</g>
</svg>
